<svg xmlns="http://www.w3.org/2000/svg" viewBox="0 0 1024 1024" fill="none">
  <defs>
    <clipPath id="macosSquircle">
      <path d="M 512 100 C 756 100 820 100 874 154 C 924 204 924 268 924 512 C 924 756 924 820 874 870 C 820 924 756 924 512 924 C 268 924 204 924 154 870 C 100 820 100 756 100 512 C 100 268 100 204 154 154 C 204 100 268 100 512 100 Z"/>
    </clipPath>
  </defs>
  <path d="M 512 100 C 756 100 820 100 874 154 C 924 204 924 268 924 512 C 924 756 924 820 874 870 C 820 924 756 924 512 924 C 268 924 204 924 154 870 C 100 820 100 756 100 512 C 100 268 100 204 154 154 C 204 100 268 100 512 100 Z" fill="#1a2a2a"/>
  <g clip-path="url(#macosSquircle)">
    <!-- Sealed envelope / wax seal aesthetic -->
    <circle cx="512" cy="512" r="300" fill="#5ac8c8"/>
    <circle cx="512" cy="512" r="200" fill="#1a2a2a"/>
    <circle cx="512" cy="512" r="120" fill="#4ab8b8"/>
  </g>
</svg>
